<mxfile host="www.draw.io" modified="2019-12-06T13:48:18.080Z" agent="Mozilla/5.0 (Windows NT 6.3; Win64; x64) AppleWebKit/537.36 (KHTML, like Gecko) Chrome/78.0.3904.108 Safari/537.36" etag="5Q1uF1U3jAe25rzAcBF-" version="12.3.7" type="github" pages="1">
  <diagram name="Page-1" id="13e1069c-82ec-6db2-03f1-153e76fe0fe0">
    <mxGraphModel dx="1110" dy="460" grid="1" gridSize="10" guides="1" tooltips="1" connect="1" arrows="1" fold="1" page="1" pageScale="1" pageWidth="1100" pageHeight="850" background="#ffffff" math="0" shadow="0">
      <root>
        <mxCell id="0"/>
        <mxCell id="1" parent="0"/>
        <mxCell id="4XCS0l6XOJ2scDM1Th3P-2" value="PatientListActivity" style="shape=umlLifeline;perimeter=lifelinePerimeter;whiteSpace=wrap;html=1;container=1;collapsible=0;recursiveResize=0;outlineConnect=0;" parent="1" vertex="1">
          <mxGeometry x="200" y="50" width="100" height="390" as="geometry"/>
        </mxCell>
        <mxCell id="4XCS0l6XOJ2scDM1Th3P-4" value="PatientListViewModel" style="shape=umlLifeline;perimeter=lifelinePerimeter;whiteSpace=wrap;html=1;container=1;collapsible=0;recursiveResize=0;outlineConnect=0;" parent="1" vertex="1">
          <mxGeometry x="355" y="50" width="160" height="390" as="geometry"/>
        </mxCell>
        <mxCell id="4XCS0l6XOJ2scDM1Th3P-7" value="" style="html=1;points=[];perimeter=orthogonalPerimeter;" parent="4XCS0l6XOJ2scDM1Th3P-4" vertex="1">
          <mxGeometry x="75" y="70" width="10" height="40" as="geometry"/>
        </mxCell>
        <mxCell id="1PhGhstBF8hGRXp7dmBy-15" value="" style="html=1;points=[];perimeter=orthogonalPerimeter;" vertex="1" parent="4XCS0l6XOJ2scDM1Th3P-4">
          <mxGeometry x="75" y="240" width="10" height="80" as="geometry"/>
        </mxCell>
        <mxCell id="4XCS0l6XOJ2scDM1Th3P-5" value="AddPatientActivity" style="shape=umlLifeline;perimeter=lifelinePerimeter;whiteSpace=wrap;html=1;container=1;collapsible=0;recursiveResize=0;outlineConnect=0;" parent="1" vertex="1">
          <mxGeometry x="560" y="50" width="120" height="390" as="geometry"/>
        </mxCell>
        <mxCell id="4XCS0l6XOJ2scDM1Th3P-14" value="" style="html=1;points=[];perimeter=orthogonalPerimeter;" parent="4XCS0l6XOJ2scDM1Th3P-5" vertex="1">
          <mxGeometry x="55" y="110" width="10" height="50" as="geometry"/>
        </mxCell>
        <mxCell id="1PhGhstBF8hGRXp7dmBy-7" value="" style="endArrow=classic;html=1;" edge="1" parent="4XCS0l6XOJ2scDM1Th3P-5" target="1PhGhstBF8hGRXp7dmBy-6">
          <mxGeometry width="50" height="50" relative="1" as="geometry">
            <mxPoint x="60" y="160" as="sourcePoint"/>
            <mxPoint x="140" y="220" as="targetPoint"/>
          </mxGeometry>
        </mxCell>
        <mxCell id="4XCS0l6XOJ2scDM1Th3P-6" value="" style="endArrow=classic;html=1;" parent="1" source="4XCS0l6XOJ2scDM1Th3P-2" target="4XCS0l6XOJ2scDM1Th3P-4" edge="1">
          <mxGeometry width="50" height="50" relative="1" as="geometry">
            <mxPoint x="200" y="430" as="sourcePoint"/>
            <mxPoint x="250" y="380" as="targetPoint"/>
            <Array as="points">
              <mxPoint x="370" y="120"/>
            </Array>
          </mxGeometry>
        </mxCell>
        <mxCell id="4XCS0l6XOJ2scDM1Th3P-8" value="onClickAddPatient()" style="text;html=1;align=center;verticalAlign=middle;resizable=0;points=[];;labelBackgroundColor=#ffffff;" parent="4XCS0l6XOJ2scDM1Th3P-6" vertex="1" connectable="0">
          <mxGeometry x="0.3027" y="-23" relative="1" as="geometry">
            <mxPoint x="-19.5" y="-33" as="offset"/>
          </mxGeometry>
        </mxCell>
        <mxCell id="4XCS0l6XOJ2scDM1Th3P-13" value="" style="endArrow=classic;html=1;" parent="1" source="4XCS0l6XOJ2scDM1Th3P-7" target="4XCS0l6XOJ2scDM1Th3P-5" edge="1">
          <mxGeometry width="50" height="50" relative="1" as="geometry">
            <mxPoint x="200" y="430" as="sourcePoint"/>
            <mxPoint x="250" y="380" as="targetPoint"/>
            <Array as="points">
              <mxPoint x="560" y="160"/>
            </Array>
          </mxGeometry>
        </mxCell>
        <mxCell id="4XCS0l6XOJ2scDM1Th3P-15" value="onCreate()" style="text;html=1;align=center;verticalAlign=middle;resizable=0;points=[];;autosize=1;" parent="1" vertex="1">
          <mxGeometry x="495" y="140" width="70" height="20" as="geometry"/>
        </mxCell>
        <mxCell id="1PhGhstBF8hGRXp7dmBy-6" value="AddPatientViewModel" style="shape=umlLifeline;perimeter=lifelinePerimeter;whiteSpace=wrap;html=1;container=1;collapsible=0;recursiveResize=0;outlineConnect=0;" vertex="1" parent="1">
          <mxGeometry x="730" y="50" width="150" height="390" as="geometry"/>
        </mxCell>
        <mxCell id="1PhGhstBF8hGRXp7dmBy-9" value="" style="html=1;points=[];perimeter=orthogonalPerimeter;" vertex="1" parent="1PhGhstBF8hGRXp7dmBy-6">
          <mxGeometry x="70" y="160" width="10" height="80" as="geometry"/>
        </mxCell>
        <mxCell id="1PhGhstBF8hGRXp7dmBy-10" value="" style="html=1;points=[];perimeter=orthogonalPerimeter;" vertex="1" parent="1PhGhstBF8hGRXp7dmBy-6">
          <mxGeometry x="80" y="190" width="10" height="40" as="geometry"/>
        </mxCell>
        <mxCell id="1PhGhstBF8hGRXp7dmBy-11" value="self call" style="edgeStyle=orthogonalEdgeStyle;html=1;align=left;spacingLeft=2;endArrow=block;rounded=0;entryX=1;entryY=0;" edge="1" target="1PhGhstBF8hGRXp7dmBy-10" parent="1PhGhstBF8hGRXp7dmBy-6">
          <mxGeometry x="-0.1429" y="10" relative="1" as="geometry">
            <mxPoint x="80" y="170" as="sourcePoint"/>
            <Array as="points">
              <mxPoint x="110" y="170"/>
            </Array>
            <mxPoint as="offset"/>
          </mxGeometry>
        </mxCell>
        <mxCell id="1PhGhstBF8hGRXp7dmBy-8" value="insert()" style="text;html=1;align=center;verticalAlign=middle;resizable=0;points=[];;autosize=1;" vertex="1" parent="1">
          <mxGeometry x="688" y="186" width="50" height="20" as="geometry"/>
        </mxCell>
        <mxCell id="1PhGhstBF8hGRXp7dmBy-12" value="composeEntities()" style="text;html=1;align=center;verticalAlign=middle;resizable=0;points=[];;autosize=1;" vertex="1" parent="1">
          <mxGeometry x="805" y="195" width="110" height="20" as="geometry"/>
        </mxCell>
        <mxCell id="1PhGhstBF8hGRXp7dmBy-13" value="" style="endArrow=classic;html=1;exitX=-0.1;exitY=1;exitDx=0;exitDy=0;exitPerimeter=0;" edge="1" parent="1" source="1PhGhstBF8hGRXp7dmBy-9" target="4XCS0l6XOJ2scDM1Th3P-4">
          <mxGeometry width="50" height="50" relative="1" as="geometry">
            <mxPoint x="200" y="430" as="sourcePoint"/>
            <mxPoint x="250" y="380" as="targetPoint"/>
          </mxGeometry>
        </mxCell>
        <mxCell id="1PhGhstBF8hGRXp7dmBy-14" value="insert()" style="text;html=1;align=center;verticalAlign=middle;resizable=0;points=[];;autosize=1;" vertex="1" parent="1">
          <mxGeometry x="560" y="270" width="50" height="20" as="geometry"/>
        </mxCell>
        <mxCell id="1PhGhstBF8hGRXp7dmBy-16" value="" style="endArrow=classic;html=1;exitX=0.2;exitY=1.013;exitDx=0;exitDy=0;exitPerimeter=0;" edge="1" parent="1" source="1PhGhstBF8hGRXp7dmBy-15" target="4XCS0l6XOJ2scDM1Th3P-2">
          <mxGeometry width="50" height="50" relative="1" as="geometry">
            <mxPoint x="330" y="410" as="sourcePoint"/>
            <mxPoint x="380" y="360" as="targetPoint"/>
          </mxGeometry>
        </mxCell>
        <mxCell id="1PhGhstBF8hGRXp7dmBy-17" value="onCreate()" style="text;html=1;align=center;verticalAlign=middle;resizable=0;points=[];;autosize=1;" vertex="1" parent="1">
          <mxGeometry x="294" y="347" width="70" height="20" as="geometry"/>
        </mxCell>
      </root>
    </mxGraphModel>
  </diagram>
</mxfile>
